<svg width="44" height="40" viewBox="0 0 44 40" fill="none" xmlns="http://www.w3.org/2000/svg">
<path fill-rule="evenodd" clip-rule="evenodd" d="M21.9997 12.5C20.8946 12.5 19.8348 12.939 19.0534 13.7204C18.272 14.5018 17.833 15.5616 17.833 16.6667C17.833 17.7717 18.272 18.8315 19.0534 19.6129C19.1084 19.6679 19.1647 19.7212 19.2223 19.7727C18.5086 20.0998 17.8515 20.5534 17.2856 21.1193C16.0354 22.3695 15.333 24.0652 15.333 25.8333V26.6667C15.333 27.1269 15.7061 27.5 16.1663 27.5C16.6266 27.5 16.9997 27.1269 16.9997 26.6667V25.8333C16.9997 24.5073 17.5265 23.2355 18.4641 22.2978C19.4018 21.3601 20.6736 20.8333 21.9997 20.8333C23.3258 20.8333 24.5975 21.3601 25.5352 22.2978C26.4729 23.2355 26.9997 24.5073 26.9997 25.8333V26.6667C26.9997 27.1269 27.3728 27.5 27.833 27.5C28.2932 27.5 28.6663 27.1269 28.6663 26.6667V25.8333C28.6663 24.0652 27.964 22.3695 26.7137 21.1193C26.1479 20.5534 25.4908 20.0998 24.777 19.7727C24.8346 19.7212 24.891 19.6679 24.946 19.6129C25.7274 18.8315 26.1663 17.7717 26.1663 16.6667C26.1663 15.5616 25.7274 14.5018 24.946 13.7204C24.1645 12.939 23.1047 12.5 21.9997 12.5ZM20.2319 14.8989C20.7007 14.4301 21.3366 14.1667 21.9997 14.1667C22.6627 14.1667 23.2986 14.4301 23.7674 14.8989C24.2363 15.3677 24.4997 16.0036 24.4997 16.6667C24.4997 17.3297 24.2363 17.9656 23.7674 18.4344C23.2986 18.9033 22.6627 19.1667 21.9997 19.1667C21.3366 19.1667 20.7007 18.9033 20.2319 18.4344C19.7631 17.9656 19.4997 17.3297 19.4997 16.6667C19.4997 16.0036 19.7631 15.3677 20.2319 14.8989Z" fill="#757575"/>
</svg>
