<svg width="44" height="40" viewBox="0 0 44 40" fill="none" xmlns="http://www.w3.org/2000/svg">
<g clip-path="url(#clip0_0_82)">
<path fill-rule="evenodd" clip-rule="evenodd" d="M21.9997 16.6666C21.1156 16.6666 20.2678 17.0178 19.6427 17.6429C19.0175 18.268 18.6663 19.1159 18.6663 19.9999C18.6663 20.884 19.0175 21.7318 19.6427 22.3569C20.2678 22.9821 21.1156 23.3333 21.9997 23.3333C22.8837 23.3333 23.7316 22.9821 24.3567 22.3569C24.9818 21.7318 25.333 20.884 25.333 19.9999C25.333 19.1159 24.9818 18.268 24.3567 17.6429C23.7316 17.0178 22.8837 16.6666 21.9997 16.6666ZM20.8212 18.8214C21.1337 18.5088 21.5576 18.3333 21.9997 18.3333C22.4417 18.3333 22.8656 18.5088 23.1782 18.8214C23.4907 19.134 23.6663 19.5579 23.6663 19.9999C23.6663 20.4419 23.4907 20.8659 23.1782 21.1784C22.8656 21.491 22.4417 21.6666 21.9997 21.6666C21.5576 21.6666 21.1337 21.491 20.8212 21.1784C20.5086 20.8659 20.333 20.4419 20.333 19.9999C20.333 19.5579 20.5086 19.134 20.8212 18.8214Z" fill="#757575"/>
<path fill-rule="evenodd" clip-rule="evenodd" d="M21.1505 10.8333C20.772 10.8333 20.441 11.0884 20.3446 11.4545L19.9223 13.0588L18.5806 13.6244L17.5536 12.7107C17.2238 12.4173 16.7225 12.4319 16.4104 12.744L14.7438 14.4107C14.4418 14.7126 14.417 15.1939 14.6861 15.5253L15.5863 16.6335L15.0343 17.9915L13.4769 18.3551C13.0998 18.4431 12.833 18.7793 12.833 19.1666V20.8333C12.833 21.209 13.0845 21.5383 13.447 21.6372L15.0568 22.0763L15.6239 23.4217L14.7111 24.4453C14.417 24.775 14.4314 25.2768 14.7438 25.5892L16.4104 27.2558C16.7127 27.5582 17.1948 27.5826 17.5262 27.3125L18.6341 26.4094L19.9586 26.9542L20.3584 28.5373C20.4518 28.9073 20.7847 29.1666 21.1663 29.1666H22.833C23.2145 29.1666 23.5473 28.9075 23.6409 28.5377L24.0416 26.954L25.4105 26.387C25.5483 26.5025 25.7063 26.6382 25.8635 26.7751C26.0197 26.9111 26.1649 27.0393 26.2711 27.1336C26.3242 27.1806 26.3674 27.2192 26.3973 27.2458L26.4426 27.2863C26.7721 27.582 27.2759 27.5689 27.5889 27.2558L29.2556 25.5892C29.5623 25.2825 29.5825 24.7918 29.3019 24.4609L28.3942 23.3905L28.9559 22.0338L30.5426 21.6215C30.9099 21.526 31.1663 21.1944 31.1663 20.8149V19.1666C31.1663 18.7855 30.9078 18.4529 30.5385 18.359L28.9616 17.9578L28.4013 16.6044L29.3028 15.5379C29.5825 15.207 29.5619 14.717 29.2556 14.4107L27.5889 12.744C27.2813 12.4364 26.7889 12.4171 26.4582 12.6998L25.3996 13.6046L23.9985 13.0286L23.5848 11.4547C23.4885 11.0885 23.1575 10.8333 22.7788 10.8333H21.1505ZM27.5343 24.9534L26.9642 25.5236L26.9579 25.5181C26.6502 25.2501 26.2537 24.911 26.0302 24.7512C25.7961 24.5839 25.4924 24.5491 25.2266 24.6592L23.0175 25.5742C22.7743 25.6749 22.593 25.8845 22.5285 26.1397L22.1843 27.4999H21.8154L21.4718 26.1392C21.4072 25.8832 21.225 25.673 20.9809 25.5726L18.8092 24.6792C18.5264 24.5629 18.2026 24.6108 17.9656 24.804L17.0566 25.545L16.4788 24.9672L17.2183 24.1379C17.4324 23.8978 17.4892 23.556 17.3642 23.2595L16.4351 21.0554C16.3357 20.8196 16.1334 20.6425 15.8865 20.5751L14.4997 20.1968V19.8278L15.8333 19.5164C16.0968 19.4549 16.314 19.2693 16.4158 19.0187L17.3158 16.8045C17.4303 16.5229 17.3823 16.2013 17.1907 15.9654L16.4536 15.0578L17.0331 14.4784L17.8658 15.2192C18.1058 15.4328 18.4473 15.4893 18.7434 15.3645L20.9475 14.4353C21.1858 14.3349 21.3639 14.1296 21.4297 13.8795L21.7929 12.4999H22.1363L22.4921 13.8534C22.5585 14.1061 22.7395 14.313 22.9811 14.4123L25.2369 15.3398C25.5262 15.4587 25.8576 15.4057 26.0953 15.2025L26.9553 14.4674L27.5352 15.0473L26.8007 15.9161C26.5995 16.1542 26.548 16.4848 26.6672 16.7728L27.5814 18.9812C27.6819 19.224 27.8911 19.4052 28.1459 19.47L29.4997 19.8145V20.1705L28.1351 20.525C27.8822 20.5908 27.6747 20.7713 27.5747 21.0128L26.6597 23.2228C26.5403 23.5113 26.5921 23.8424 26.7941 24.0806L27.5343 24.9534Z" fill="#757575"/>
</g>
<defs>
<clipPath id="clip0_0_82">
<rect width="20" height="20" fill="white" transform="translate(12 10)"/>
</clipPath>
</defs>
</svg>
