<svg width="20" height="17" viewBox="0 0 20 17" fill="none" xmlns="http://www.w3.org/2000/svg">
<path d="M20.0002 10.9092H18.182V12.7274H20.0002V10.9092ZM20.0002 7.2728H18.182V9.091H20.0002V7.2728ZM20.0002 14.5456H18.182V16.3638C19.0911 16.3638 20.0002 15.4547 20.0002 14.5456ZM12.7274 0H10.9092V1.8182H12.7274V0ZM20.0002 3.6364H18.182V5.4546H20.0002V3.6364ZM18.182 0V1.8182H20.0002C20.0002 0.9091 19.0911 0 18.182 0ZM1.8182 16.3638H9.091V10.9092H0V14.5456C0 15.5456 0.81819 16.3638 1.8182 16.3638ZM1.8182 3.6364H0V5.4546H1.8182V3.6364ZM12.7274 14.5456H10.9092V16.3638H12.7274V14.5456ZM16.3638 0H14.5456V1.8182H16.3638V0ZM16.3638 14.5456H14.5456V16.3638H16.3638V14.5456ZM1.8182 0C0.9091 0 0 0.9091 0 1.8182H1.8182V0ZM1.8182 7.2728H0V9.091H1.8182V7.2728ZM9.091 0H7.2728V1.8182H9.091V0ZM5.4546 0H3.6364V1.8182H5.4546V0Z" fill="black"/>
</svg>
