<svg width="44" height="40" viewBox="0 0 44 40" fill="none" xmlns="http://www.w3.org/2000/svg">
<path fill-rule="evenodd" clip-rule="evenodd" d="M18.6667 11.6666C18.6667 11.2063 18.2936 10.8333 17.8333 10.8333C17.3731 10.8333 17 11.2063 17 11.6666V12.4999H16.1667C15.5036 12.4999 14.8677 12.7633 14.3989 13.2322C13.93 13.701 13.6667 14.3369 13.6667 14.9999V25.8333C13.6667 26.4963 13.93 27.1322 14.3989 27.601C14.8677 28.0699 15.5036 28.3333 16.1667 28.3333H27.8333C28.4964 28.3333 29.1322 28.0699 29.6011 27.601C30.0699 27.1322 30.3333 26.4963 30.3333 25.8333V14.9999C30.3333 14.3369 30.0699 13.701 29.6011 13.2322C29.1322 12.7633 28.4964 12.4999 27.8333 12.4999H27.4167C26.9564 12.4999 26.5833 12.873 26.5833 13.3333C26.5833 13.7935 26.9564 14.1666 27.4167 14.1666H27.8333C28.0543 14.1666 28.2663 14.2544 28.4226 14.4107C28.5789 14.5669 28.6667 14.7789 28.6667 14.9999V17.4999H15.3333V14.9999C15.3333 14.7789 15.4211 14.5669 15.5774 14.4107C15.7337 14.2544 15.9456 14.1666 16.1667 14.1666H17V14.9999C17 15.4602 17.3731 15.8333 17.8333 15.8333C18.2936 15.8333 18.6667 15.4602 18.6667 14.9999V11.6666ZM15.5774 26.4225C15.4211 26.2662 15.3333 26.0543 15.3333 25.8333V19.1666H28.6667V25.8333C28.6667 26.0543 28.5789 26.2662 28.4226 26.4225C28.2663 26.5788 28.0543 26.6666 27.8333 26.6666H16.1667C15.9456 26.6666 15.7337 26.5788 15.5774 26.4225Z" fill="#757575"/>
<path d="M25.3333 11.6666C25.3333 11.2063 24.9602 10.8333 24.5 10.8333C24.0398 10.8333 23.6667 11.2063 23.6667 11.6666V12.4999H20.75C20.2898 12.4999 19.9167 12.873 19.9167 13.3333C19.9167 13.7935 20.2898 14.1666 20.75 14.1666H23.6667V14.9999C23.6667 15.4602 24.0398 15.8333 24.5 15.8333C24.9602 15.8333 25.3333 15.4602 25.3333 14.9999V11.6666Z" fill="#757575"/>
</svg>
