<svg width="20" height="20" viewBox="0 0 20 20" fill="none" xmlns="http://www.w3.org/2000/svg">
<path fill-rule="evenodd" clip-rule="evenodd" d="M13 1.66663C12.6464 1.66663 12.3072 1.8071 12.0572 2.05715C11.8071 2.3072 11.6667 2.64634 11.6667 2.99996V6.66663H7.99999C7.64637 6.66663 7.30723 6.8071 7.05718 7.05715C6.80713 7.3072 6.66666 7.64634 6.66666 7.99996V12.5H2.99999C2.64637 12.5 2.30723 12.6404 2.05718 12.8905C1.80713 13.1405 1.66666 13.4797 1.66666 13.8333V17C1.66666 17.3536 1.80713 17.6927 2.05718 17.9428C2.30723 18.1928 2.64637 18.3333 2.99999 18.3333H17C17.3536 18.3333 17.6927 18.1928 17.9428 17.9428C18.1928 17.6927 18.3333 17.3536 18.3333 17V2.99996C18.3333 2.64634 18.1928 2.3072 17.9428 2.05715C17.6927 1.8071 17.3536 1.66663 17 1.66663H13ZM8.33332 8.33329H11.6667V16.6666H8.33332V8.33329ZM16.6667 16.6666H13.3333V3.33329H16.6667V16.6666ZM6.66666 14.1666V16.6666H3.33332V14.1666H6.66666Z" fill="#757575"/>
</svg>
