<svg width="44" height="40" viewBox="0 0 44 40" fill="none" xmlns="http://www.w3.org/2000/svg">
<path d="M18.6667 17.5C18.2064 17.5 17.8333 17.8731 17.8333 18.3334C17.8333 18.7936 18.2064 19.1667 18.6667 19.1667H25.3333C25.7936 19.1667 26.1667 18.7936 26.1667 18.3334C26.1667 17.8731 25.7936 17.5 25.3333 17.5H18.6667Z" fill="#757575"/>
<path d="M18.6667 20.8334C18.2064 20.8334 17.8333 21.2065 17.8333 21.6667C17.8333 22.1269 18.2064 22.5 18.6667 22.5H22C22.4602 22.5 22.8333 22.1269 22.8333 21.6667C22.8333 21.2065 22.4602 20.8334 22 20.8334H18.6667Z" fill="#757575"/>
<path d="M18.6667 24.1667C18.2064 24.1667 17.8333 24.5398 17.8333 25C17.8333 25.4603 18.2064 25.8334 18.6667 25.8334H25.3333C25.7936 25.8334 26.1667 25.4603 26.1667 25C26.1667 24.5398 25.7936 24.1667 25.3333 24.1667H18.6667Z" fill="#757575"/>
<path fill-rule="evenodd" clip-rule="evenodd" d="M29.399 14.2814C29.3319 14.1191 29.2335 13.9716 29.1093 13.8475L26.4863 11.2245C26.2365 10.9744 25.8976 10.8337 25.5441 10.8334H15.8333C15.4797 10.8334 15.1406 10.9739 14.8905 11.2239C14.6405 11.4739 14.5 11.8131 14.5 12.1667V27.8334C14.5 28.0085 14.5345 28.1819 14.6015 28.3436C14.6685 28.5054 14.7667 28.6524 14.8905 28.7762C15.0143 28.9 15.1613 28.9982 15.3231 29.0652C15.4849 29.1322 15.6582 29.1667 15.8333 29.1667H28.1667C28.3418 29.1667 28.5151 29.1322 28.6769 29.0652C28.8387 28.9982 28.9857 28.9 29.1095 28.7762C29.2333 28.6524 29.3315 28.5054 29.3985 28.3436C29.4655 28.1818 29.5 28.0085 29.5 27.8334V14.792L28.6667 14.7917L29.5 14.7937L29.5 14.792C29.5002 14.6168 29.4659 14.4433 29.399 14.2814ZM24.5 14.5834C24.5 15.2737 25.0596 15.8334 25.75 15.8334H27.8333V27.5H16.1667V12.5H24.5V14.5834ZM27.0715 14.1667L26.1667 13.2619V14.1667H27.0715Z" fill="#757575"/>
</svg>
