<svg width="20" height="20" viewBox="0 0 20 20" fill="none" xmlns="http://www.w3.org/2000/svg">
<path fill-rule="evenodd" clip-rule="evenodd" d="M6.66666 1.66671C6.66666 1.20647 6.29356 0.833374 5.83332 0.833374C5.37309 0.833374 4.99999 1.20647 4.99999 1.66671V2.50004H4.16666C3.50362 2.50004 2.86773 2.76343 2.39889 3.23227C1.93005 3.70111 1.66666 4.337 1.66666 5.00004V15.8334C1.66666 16.4964 1.93005 17.1323 2.39889 17.6011C2.86773 18.07 3.50361 18.3334 4.16666 18.3334H15.8333C16.4964 18.3334 17.1322 18.07 17.6011 17.6011C18.0699 17.1323 18.3333 16.4964 18.3333 15.8334V5.00004C18.3333 4.337 18.0699 3.70111 17.6011 3.23227C17.1322 2.76343 16.4964 2.50004 15.8333 2.50004H15.4167C14.9564 2.50004 14.5833 2.87314 14.5833 3.33337C14.5833 3.79361 14.9564 4.16671 15.4167 4.16671H15.8333C16.0543 4.16671 16.2663 4.2545 16.4226 4.41079C16.5789 4.56707 16.6667 4.77903 16.6667 5.00004V7.50004H3.33332V5.00004C3.33332 4.77903 3.42112 4.56707 3.5774 4.41079C3.73368 4.2545 3.94564 4.16671 4.16666 4.16671H4.99999V5.00004C4.99999 5.46028 5.37309 5.83337 5.83332 5.83337C6.29356 5.83337 6.66666 5.46028 6.66666 5.00004V1.66671ZM3.5774 16.4226C3.42112 16.2663 3.33332 16.0544 3.33332 15.8334V9.16671H16.6667V15.8334C16.6667 16.0544 16.5789 16.2663 16.4226 16.4226C16.2663 16.5789 16.0543 16.6667 15.8333 16.6667H4.16666C3.94564 16.6667 3.73368 16.5789 3.5774 16.4226Z" fill="#757575"/>
<path d="M13.3333 1.66671C13.3333 1.20647 12.9602 0.833374 12.5 0.833374C12.0398 0.833374 11.6667 1.20647 11.6667 1.66671V2.50004H8.74999C8.28975 2.50004 7.91666 2.87314 7.91666 3.33337C7.91666 3.79361 8.28975 4.16671 8.74999 4.16671H11.6667V5.00004C11.6667 5.46028 12.0398 5.83337 12.5 5.83337C12.9602 5.83337 13.3333 5.46028 13.3333 5.00004V1.66671Z" fill="#757575"/>
</svg>
