<svg width="44" height="40" viewBox="0 0 44 40" fill="none" xmlns="http://www.w3.org/2000/svg">
<path d="M17.833 11.6667C17.17 11.6667 16.5341 11.9301 16.0652 12.399C15.5964 12.8678 15.333 13.5037 15.333 14.1667V25.8334C15.333 26.4965 15.5964 27.1323 16.0652 27.6012C16.5341 28.07 17.17 28.3334 17.833 28.3334H26.1663C26.8294 28.3334 27.4653 28.07 27.9341 27.6012C28.4029 27.1323 28.6663 26.4965 28.6663 25.8334V25.0001C28.6663 24.5398 28.2932 24.1667 27.833 24.1667C27.3728 24.1667 26.9997 24.5398 26.9997 25.0001V25.8334C26.9997 26.0544 26.9119 26.2664 26.7556 26.4227C26.5993 26.579 26.3874 26.6667 26.1663 26.6667H17.833C17.612 26.6667 17.4 26.579 17.2438 26.4227C17.0875 26.2664 16.9997 26.0544 16.9997 25.8334V14.1667C16.9997 13.9457 17.0875 13.7338 17.2438 13.5775C17.4 13.4212 17.612 13.3334 17.833 13.3334H26.1663C26.3874 13.3334 26.5993 13.4212 26.7556 13.5775C26.9119 13.7338 26.9997 13.9457 26.9997 14.1667V15.0001C26.9997 15.4603 27.3728 15.8334 27.833 15.8334C28.2932 15.8334 28.6663 15.4603 28.6663 15.0001V14.1667C28.6663 13.5037 28.4029 12.8678 27.9341 12.399C27.4653 11.9301 26.8294 11.6667 26.1663 11.6667H17.833Z" fill="#D55F5A"/>
<path d="M25.9223 16.9108C25.5968 16.5854 25.0692 16.5854 24.7438 16.9108C24.4183 17.2363 24.4183 17.7639 24.7438 18.0893L25.8212 19.1667H21.9997C21.5394 19.1667 21.1663 19.5398 21.1663 20.0001C21.1663 20.4603 21.5394 20.8334 21.9997 20.8334H25.8212L24.7438 21.9108C24.4183 22.2363 24.4183 22.7639 24.7438 23.0893C25.0692 23.4148 25.5968 23.4148 25.9223 23.0893L28.4223 20.5893C28.7477 20.2639 28.7477 19.7363 28.4223 19.4108L25.9223 16.9108Z" fill="#D55F5A"/>
</svg>
