<svg width="44" height="40" viewBox="0 0 44 40" fill="none" xmlns="http://www.w3.org/2000/svg">
<path fill-rule="evenodd" clip-rule="evenodd" d="M22.0003 12.2314C21.2389 12.2314 20.4921 12.4401 19.8409 12.8347L15.6743 15.3597C15.0616 15.731 14.5549 16.254 14.2033 16.8782C13.8517 17.5024 13.667 18.2067 13.667 18.9232V24.1665C13.667 25.2716 14.106 26.3314 14.8874 27.1128C15.6688 27.8942 16.7286 28.3332 17.8337 28.3332H26.167C27.2721 28.3332 28.3319 27.8942 29.1133 27.1128C29.8947 26.3314 30.3337 25.2716 30.3337 24.1665V18.9223C30.3335 18.2061 30.1487 17.5018 29.7971 16.8777C29.4455 16.2537 28.9389 15.7309 28.3264 15.3597L24.1597 12.8347C23.5086 12.4401 22.7617 12.2314 22.0003 12.2314ZM20.7047 14.26C21.0954 14.0233 21.5435 13.8981 22.0003 13.8981C22.4572 13.8981 22.9052 14.0233 23.2959 14.26L27.4626 16.785C27.8301 17.0078 28.1341 17.3215 28.345 17.6959C28.556 18.0702 28.6669 18.4927 28.667 18.9223V24.1665C28.667 24.8296 28.4036 25.4654 27.9348 25.9343C27.4659 26.4031 26.83 26.6665 26.167 26.6665H25.3337V24.1665C25.3337 23.2825 24.9825 22.4346 24.3573 21.8095C23.7322 21.1844 22.8844 20.8332 22.0003 20.8332C21.1163 20.8332 20.2684 21.1844 19.6433 21.8095C19.0182 22.4346 18.667 23.2825 18.667 24.1665V26.6665H17.8337C17.1706 26.6665 16.5347 26.4031 16.0659 25.9343C15.5971 25.4654 15.3337 24.8296 15.3337 24.1665V18.9232C15.3336 18.4933 15.4445 18.0707 15.6555 17.6962C15.8664 17.3216 16.1704 17.0078 16.538 16.785L20.7047 14.26ZM23.1788 22.988C23.4914 23.3006 23.667 23.7245 23.667 24.1665V26.6665H20.3337V24.1665C20.3337 23.7245 20.5093 23.3006 20.8218 22.988C21.1344 22.6754 21.5583 22.4999 22.0003 22.4999C22.4424 22.4999 22.8663 22.6754 23.1788 22.988Z" fill="#757575"/>
</svg>
