<svg width="44" height="40" viewBox="0 0 44 40" fill="none" xmlns="http://www.w3.org/2000/svg">
<path fill-rule="evenodd" clip-rule="evenodd" d="M25.0003 11.6667C24.6467 11.6667 24.3076 11.8072 24.0575 12.0573C23.8075 12.3073 23.667 12.6465 23.667 13.0001V16.6667H20.0003C19.6467 16.6667 19.3076 16.8072 19.0575 17.0573C18.8075 17.3073 18.667 17.6465 18.667 18.0001V22.5001H15.0003C14.6467 22.5001 14.3076 22.6406 14.0575 22.8906C13.8075 23.1407 13.667 23.4798 13.667 23.8334V27.0001C13.667 27.3537 13.8075 27.6928 14.0575 27.9429C14.3076 28.1929 14.6467 28.3334 15.0003 28.3334H29.0003C29.3539 28.3334 29.6931 28.1929 29.9431 27.9429C30.1932 27.6928 30.3337 27.3537 30.3337 27.0001V13.0001C30.3337 12.6465 30.1932 12.3073 29.9431 12.0573C29.6931 11.8072 29.3539 11.6667 29.0003 11.6667H25.0003ZM20.3337 18.3334H23.667V26.6667H20.3337V18.3334ZM28.667 26.6667H25.3337V13.3334H28.667V26.6667ZM18.667 24.1667V26.6667H15.3337V24.1667H18.667Z" fill="#757575"/>
</svg>
