<svg width="17" height="18" viewBox="0 0 17 18" fill="none" xmlns="http://www.w3.org/2000/svg">
<path fill-rule="evenodd" clip-rule="evenodd" d="M5.0999 0.849983C5.0999 0.380551 4.71935 0 4.24992 0C3.78048 0 3.39993 0.380551 3.39993 0.849983V1.69997H2.54995C1.87366 1.69997 1.22507 1.96862 0.746863 2.44683C0.268654 2.92504 0 3.57363 0 4.24992V15.2997C0 15.976 0.268655 16.6246 0.746863 17.1028C1.22507 17.581 1.87366 17.8497 2.54995 17.8497H14.4497C15.126 17.8497 15.7746 17.581 16.2528 17.1028C16.731 16.6246 16.9997 15.976 16.9997 15.2997V4.24992C16.9997 3.57363 16.731 2.92504 16.2528 2.44683C15.7746 1.96862 15.126 1.69997 14.4497 1.69997H14.0247C13.5553 1.69997 13.1747 2.08052 13.1747 2.54995C13.1747 3.01938 13.5553 3.39993 14.0247 3.39993H14.4497C14.6751 3.39993 14.8913 3.48948 15.0507 3.64889C15.2101 3.80829 15.2997 4.02449 15.2997 4.24992V6.79987H1.69997V4.24992C1.69997 4.02449 1.78952 3.80829 1.94892 3.64889C2.10832 3.48949 2.32452 3.39993 2.54995 3.39993H3.39993V4.24992C3.39993 4.71935 3.78048 5.0999 4.24992 5.0999C4.71935 5.0999 5.0999 4.71935 5.0999 4.24992V0.849983ZM1.94892 15.9007C1.78952 15.7413 1.69997 15.5251 1.69997 15.2997V8.49983H15.2997V15.2997C15.2997 15.5251 15.2101 15.7413 15.0507 15.9007C14.8913 16.0601 14.6751 16.1497 14.4497 16.1497H2.54995C2.32452 16.1497 2.10832 16.0601 1.94892 15.9007Z" fill="black"/>
<path d="M11.8998 0.849983C11.8998 0.380551 11.5192 0 11.0498 0C10.5803 0 10.1998 0.380551 10.1998 0.849983V1.69997H7.22486C6.75542 1.69997 6.37487 2.08052 6.37487 2.54995C6.37487 3.01938 6.75542 3.39993 7.22486 3.39993H10.1998V4.24992C10.1998 4.71935 10.5803 5.0999 11.0498 5.0999C11.5192 5.0999 11.8998 4.71935 11.8998 4.24992V0.849983Z" fill="black"/>
</svg>
